<svg width="17" height="18" viewBox="0 0 17 18" fill="none" xmlns="http://www.w3.org/2000/svg">
<path d="M14.625 0.25C15.6605 0.25 16.5 1.08947 16.5 2.125V12.125C16.5 13.1605 15.6605 14 14.625 14H12.125V15.875C12.125 16.9105 11.2855 17.75 10.25 17.75H2.75C1.71447 17.75 0.875 16.9105 0.875 15.875V5.875C0.875 4.83947 1.71447 4 2.75 4H5.25V2.125C5.25 1.08947 6.08947 0.25 7.125 0.25H14.625ZM6.5 4H10.25C11.2855 4 12.125 4.83947 12.125 5.875V12.75H14.625C14.9702 12.75 15.25 12.4702 15.25 12.125V2.125C15.25 1.77982 14.9702 1.5 14.625 1.5H7.125C6.77982 1.5 6.5 1.77982 6.5 2.125V4ZM2.125 5.875V15.875C2.125 16.2202 2.40482 16.5 2.75 16.5H10.25C10.5952 16.5 10.875 16.2202 10.875 15.875V5.875C10.875 5.52982 10.5952 5.25 10.25 5.25H2.75C2.40482 5.25 2.125 5.52982 2.125 5.875Z" fill="#595959"/>
</svg>
