<svg width="50" height="50" viewBox="0 0 50 50" fill="none" xmlns="http://www.w3.org/2000/svg">
<path d="M24 22.5625H24.5625V22V15.25C24.5625 15.1464 24.6464 15.0625 24.75 15.0625C24.8536 15.0625 24.9375 15.1464 24.9375 15.25V22V22.5625H25.5H32.25C32.3536 22.5625 32.4375 22.6464 32.4375 22.75C32.4375 22.8536 32.3536 22.9375 32.25 22.9375H25.5H24.9375V23.5V30.25C24.9375 30.3536 24.8536 30.4375 24.75 30.4375C24.6464 30.4375 24.5625 30.3536 24.5625 30.25V23.5V22.9375H24H17.25C17.1464 22.9375 17.0625 22.8536 17.0625 22.75C17.0625 22.6464 17.1464 22.5625 17.25 22.5625H24Z" stroke="#465B7A" stroke-width="1.125"/>
</svg>
